<svg xmlns="http://www.w3.org/2000/svg" viewBox="0 0 32 32" fill="none">
  <rect width="32" height="32" rx="6" fill="#667eea"/>
  <rect x="6" y="6" width="20" height="20" rx="2" fill="white"/>
  <rect x="8" y="8" width="2" height="2" fill="#667eea"/>
  <rect x="12" y="8" width="2" height="2" fill="#667eea"/>
  <rect x="16" y="8" width="2" height="2" fill="#667eea"/>
  <rect x="20" y="8" width="2" height="2" fill="#667eea"/>
  <rect x="22" y="8" width="2" height="2" fill="#667eea"/>
  
  <rect x="8" y="10" width="2" height="2" fill="#667eea"/>
  <rect x="22" y="10" width="2" height="2" fill="#667eea"/>
  
  <rect x="8" y="12" width="2" height="2" fill="#667eea"/>
  <rect x="12" y="12" width="2" height="2" fill="#667eea"/>
  <rect x="16" y="12" width="2" height="2" fill="#667eea"/>
  <rect x="22" y="12" width="2" height="2" fill="#667eea"/>
  
  <rect x="8" y="14" width="2" height="2" fill="#667eea"/>
  <rect x="14" y="14" width="2" height="2" fill="#667eea"/>
  <rect x="18" y="14" width="2" height="2" fill="#667eea"/>
  <rect x="22" y="14" width="2" height="2" fill="#667eea"/>
  
  <rect x="8" y="16" width="2" height="2" fill="#667eea"/>
  <rect x="12" y="16" width="2" height="2" fill="#667eea"/>
  <rect x="16" y="16" width="2" height="2" fill="#667eea"/>
  <rect x="20" y="16" width="2" height="2" fill="#667eea"/>
  <rect x="22" y="16" width="2" height="2" fill="#667eea"/>
  
  <rect x="10" y="18" width="2" height="2" fill="#667eea"/>
  <rect x="14" y="18" width="2" height="2" fill="#667eea"/>
  <rect x="18" y="18" width="2" height="2" fill="#667eea"/>
  
  <rect x="8" y="20" width="2" height="2" fill="#667eea"/>
  <rect x="12" y="20" width="2" height="2" fill="#667eea"/>
  <rect x="16" y="20" width="2" height="2" fill="#667eea"/>
  <rect x="20" y="20" width="2" height="2" fill="#667eea"/>
  <rect x="22" y="20" width="2" height="2" fill="#667eea"/>
  
  <rect x="8" y="22" width="2" height="2" fill="#667eea"/>
  <rect x="22" y="22" width="2" height="2" fill="#667eea"/>
  
  <rect x="8" y="24" width="2" height="2" fill="#667eea"/>
  <rect x="12" y="24" width="2" height="2" fill="#667eea"/>
  <rect x="16" y="24" width="2" height="2" fill="#667eea"/>
  <rect x="20" y="24" width="2" height="2" fill="#667eea"/>
  <rect x="22" y="24" width="2" height="2" fill="#667eea"/>
</svg>
